<svg width="10" height="10" viewBox="0 0 10 10" fill="none" xmlns="http://www.w3.org/2000/svg">
<path d="M5.61111 1.42857V1.88095V1.92857V2.38095V2.86041L4.21746 1.90476L5.61111 0.949117V1.42857ZM8.72613 2.41974C8.66571 2.36796 8.60244 2.31974 8.5367 2.27516C8.65284 2.34317 8.76149 2.42026 8.86101 2.50556C9.28197 2.86638 9.5 3.33772 9.5 3.80952V5.21429H9.38889V3.80952C9.38889 3.27098 9.13867 2.77335 8.72613 2.41974ZM6.16667 4.79745V9.48827C6.15503 9.49396 6.13625 9.5 6.11111 9.5H0.555556C0.530413 9.5 0.511634 9.49396 0.5 9.48827V4.79745C0.511634 4.79176 0.530413 4.78571 0.555556 4.78571H6.11111C6.13625 4.78571 6.15503 4.79176 6.16667 4.79745Z" stroke="white" stroke-opacity="0.6"/>
</svg>
