<svg width="10" height="10" viewBox="0 0 10 10" fill="none" xmlns="http://www.w3.org/2000/svg">
<path d="M5.78254 1.90476L4.38889 2.86041V2.38095V1.92857V1.88095V1.42857V0.949117L5.78254 1.90476ZM1.13899 2.50556C1.23851 2.42026 1.34716 2.34318 1.4633 2.27516C1.39756 2.31974 1.33429 2.36796 1.27387 2.41974C0.861333 2.77335 0.611111 3.27098 0.611111 3.80952V5.21429H0.5V3.80952C0.5 3.33772 0.718031 2.86638 1.13899 2.50556ZM3.83333 4.79745C3.84497 4.79176 3.86375 4.78571 3.88889 4.78571H9.44444C9.46959 4.78571 9.48837 4.79176 9.5 4.79745V9.48827C9.48837 9.49396 9.46959 9.5 9.44444 9.5H3.88889C3.86375 9.5 3.84497 9.49395 3.83333 9.48827V4.79745Z" stroke="white" stroke-opacity="0.6"/>
</svg>
